<?xml version="1.0" standalone="no"?>
<!DOCTYPE svg PUBLIC "-//W3C//DTD SVG 20010904//EN"
 "http://www.w3.org/TR/2001/REC-SVG-20010904/DTD/svg10.dtd">
<svg version="1.0" xmlns="http://www.w3.org/2000/svg"
 width="300.000000pt" height="300.000000pt" viewBox="0 0 300.000000 300.000000"
 preserveAspectRatio="xMidYMid meet">

<g transform="translate(0.000000,300.000000) scale(0.100000,-0.100000)"
fill="#000000" stroke="none">
<path d="M1330 2993 c-387 -59 -658 -191 -906 -439 -204 -204 -339 -458 -401
-754 -25 -120 -25 -402 1 -520 24 -113 60 -227 104 -327 l35 -83 59 0 c32 0
58 2 58 5 0 3 -17 40 -39 83 -43 86 -83 202 -107 307 -21 97 -30 342 -15 446
113 792 877 1319 1674 1154 298 -62 590 -235 780 -463 121 -145 192 -271 250
-442 50 -147 69 -268 69 -435 0 -221 -38 -396 -123 -567 -22 -43 -39 -80 -39
-83 0 -3 26 -5 57 -3 l58 3 42 100 c86 205 119 393 110 625 -12 289 -104 553

-25 15 -31 0 -7 5 -13 10 -13 15 0 -18 60 -37 67 -8 3 -18 0 -23 -6 -6 -10
-11 -10 -27 0 -20 12 -20 12 3 47 30 44 30 64 0 99 -21 24 -32 28 -79 28 -30
0 -53 -4 -50 -8z"/>
<path d="M2295 2090 c-14 -7 -8 -8 22 -3 28 3 52 0 75 -11 30 -15 31 -15 17
-1 -19 20 -86 28 -114 15z"/>
<path d="M1353 1842 c-12 -2 -41 -20 -65 -41 -40 -34 -134 -102 -178 -126 -10
-6 -24 -16 -31 -22 -8 -6 -50 -30 -94 -53 -44 -24 -96 -60 -116 -81 -32 -34
-34 -40 -22 -61 17 -31 16 -68 -2 -87 -12 -15 -11 -19 15 -36 24 -16 30 -27
30 -57 0 -58 -21 -57 580 -45 146 2 300 5 343 6 77 1 78 1 83 30 8 40 76 109
146 148 52 30 110 89 137 141 10 19 9 22 -8 22 -11 0 -51 23 -88 52 -118 89
-155 108 -210 108 -42 0 -54 -5 -78 -30 -24 -25 -37 -30 -75 -30 -72 0 -109
18 -183 87 -37 34 -71 63 -75 63 -4 1 -25 4 -47 8 -22 4 -50 6 -62 4z m-1 -48
c9 -8 -21 -76 -45 -101 -17 -19 -19 -27 -9 -48 16 -35 15 -67 -2 -91 -14 -18
-15 -18 -25 9 -6 15 -18 27 -27 27 -21 0 -43 -28 -44 -55 0 -24 -18 -45 -38
-45 -7 0 -34 -16 -59 -35 -25 -19 -51 -35 -57 -35 -15 0 96 99 112 100 6 0 12
7 12 15 0 8 5 15 10 15 6 0 10 14 10 30 0 31 9 43 74 94 39 32 40 34 26 56 -8
13 -12 12 -25 -7 -18 -26 -45 -31 -45 -8 0 15 24 33 83 65 38 21 42 22 49 14z
m71 -29 c4 -8 22 -21 40 -29 57 -23 55 -36 -5 -33 l-53 2 -3 38 c-3 36 11 51
21 22z m546 -117 c-25 -9 -40 -1 -21 11 7 4 10 16 7 27 -5 15 -3 14 15 -6 l21
-24 -22 -8z m-51 18 c3 -15 1 -16 -17 -6 -12 6 -19 16 -15 21 9 15 28 5 32
-15z m-773 -16 c-10 -11 -20 -18 -23 -15 -7 6 18 35 31 35 5 0 2 -9 -8 -20z
m689 4 c3 -9 6 -33 6 -54 0 -24 5 -40 15 -44 8 -3 15 -10 15 -16 0 -20 -36 -9
-79 25 -25 20 -56 38 -70 41 -38 8 -56 19 -59 38 -5 23 19 20 58 -9 19 -14 42
-25 52 -25 19 0 25 25 8 35 -16 10 -1 25 25 25 12 0 26 -7 29 -16z m254 -55
c12 -5 22 -14 22 -20 0 -7 -9 -9 -22 -5 -13 3 -30 6 -39 6 -9 0 -19 9 -22 20
-6 22 0 22 61 -1z"/>
<path d="M455 752 c-52 -33 -68 -59 -72 -115 -5 -66 20 -110 80 -137 58 -27
140 -27 167 0 32 32 24 38 -26 22 -41 -13 -52 -14 -88 -1 -84 29 -111 128 -52
188 21 21 36 26 74 26 26 0 57 -4 70 -8 21 -8 23 -6 20 15 -3 21 -8 23 -73 26
-54 2 -77 -2 -100 -16z"/>
<path d="M2222 728 c2 -15 10 -23 23 -23 13 0 21 8 23 23 3 18 -1 22 -23 22
-22 0 -26 -4 -23 -22z"/>
<path d="M2350 716 c0 -15 -11 -32 -27 -45 -22 -16 -24 -20 -10 -21 14 0 17
-10 17 -68 0 -39 5 -75 13 -85 18 -24 61 -31 76 -13 12 14 10 16 -7 16 -29 0
-42 29 -42 95 l0 57 35 -4 c29 -3 35 -1 35 14 0 14 -8 18 -35 18 -32 0 -35 2
-35 30 0 17 -4 30 -10 30 -5 0 -10 -11 -10 -24z"/>
<path d="M743 683 c-30 -6 -71 -46 -79 -78 -10 -41 19 -93 63 -112 106 -44
213 49 163 142 -22 42 -80 61 -147 48z m86 -40 c53 -45 24 -133 -44 -133 -63
0 -99 86 -55 130 25 25 71 26 99 3z"/>
<path d="M930 666 c7 -10 10 -44 8 -100 -3 -86 -3 -86 22 -86 24 0 25 1 22 64
-4 78 8 106 47 106 47 0 63 -29 59 -104 -3 -65 -2 -66 22 -66 24 0 25 1 22 64
-5 82 8 106 53 106 45 0 58 -24 53 -106 l-3 -64 29 0 c22 0 27 4 22 16 -3 9
-6 45 -6 80 0 51 -4 68 -20 84 -25 25 -86 27 -118 4 -21 -15 -25 -15 -41 0
-21 19 -82 21 -100 4 -11 -10 -14 -10 -18 0 -3 6 -18 12 -35 12 -25 0 -28 -2
-18 -14z"/>
<path d="M1335 580 c0 -100 0 -100 25 -100 24 0 25 1 22 64 -4 78 8 106 47
106 47 0 63 -29 59 -104 -3 -65 -2 -66 22 -66 24 0 25 1 22 64 -5 82 8 106 53
106 45 0 58 -24 53 -106 l-3 -64 29 0 c22 0 27 4 22 16 -3 9 -6 45 -6 80 0 51
-4 68 -20 84 -25 25 -86 27 -118 4 -21 -15 -25 -15 -41 0 -23 21 -79 21 -103
-1 -17 -15 -18 -15 -18 0 0 11 -8 17 -22 17 -22 0 -23 -3 -23 -100z"/>
<path d="M1724 664 c3 -9 6 -45 6 -80 0 -80 19 -104 83 -104 24 0 48 5 55 12
9 9 12 9 12 0 0 -7 14 -12 32 -12 25 0 29 3 20 12 -8 8 -12 45 -12 100 0 85
-1 88 -23 88 -22 0 -23 -3 -19 -64 5 -81 -7 -106 -53 -106 -44 0 -55 20 -55
104 0 64 -1 66 -26 66 -20 0 -25 -4 -20 -16z"/>
<path d="M1975 580 l0 -100 25 0 c26 0 26 1 22 64 -5 81 7 106 53 106 45 0 58
-24 53 -106 -3 -63 -2 -64 22 -64 25 0 25 0 22 83 -3 68 -7 85 -24 100 -23 20
-69 22 -101 6 -16 -9 -22 -9 -25 0 -2 6 -13 11 -25 11 -21 0 -22 -4 -22 -100z"/>
<path d="M2221 659 c6 -13 10 -54 7 -100 -3 -79 -3 -79 22 -79 l25 0 -3 100
-3 100 -30 0 c-27 0 -29 -2 -18 -21z"/>
<path d="M2460 671 c0 -6 4 -13 10 -16 5 -3 30 -45 55 -93 45 -87 45 -87 26
-112 -12 -16 -29 -25 -48 -26 -40 -1 -60 -13 -42 -25 21 -13 57 -11 89 6 28
14 66 82 131 233 l18 42 -30 0 c-24 0 -30 -4 -25 -15 3 -8 -8 -45 -25 -81
l-30 -67 -35 74 c-20 40 -41 77 -47 81 -17 11 -47 10 -47 -1z"/>
<path d="M438 329 c17 -18 17 -300 0 -318 -11 -10 19 -12 157 -9 151 3 175 6
211 25 78 41 76 110 -3 148 l-43 21 30 11 c54 20 53 75 -2 108 -28 17 -56 20
-198 23 -135 3 -163 2 -152 -9z m232 -54 c17 -20 9 -48 -20 -62 -32 -16 -40
-9 -40 38 0 34 3 39 24 39 13 0 29 -7 36 -15z m28 -131 c46 -32 11 -94 -53
-94 l-35 0 0 55 0 55 33 0 c18 0 43 -7 55 -16z"/>
<path d="M1033 322 c15 -17 12 -26 -52 -142 -38 -69 -80 -137 -94 -152 l-25
-28 79 0 c77 0 79 1 67 20 -11 16 -10 25 4 47 16 27 21 28 102 31 l86 3 17
-37 c17 -35 17 -36 -2 -50 -16 -12 -4 -14 104 -14 l123 0 -29 28 c-15 15 -66
91 -113 170 l-85 142 -99 0 c-95 0 -98 -1 -83 -18z m110 -127 l26 -45 -55 0
c-30 0 -54 2 -54 6 0 10 45 84 52 84 3 0 18 -20 31 -45z"/>
<path d="M1474 309 c25 -29 26 -37 26 -143 0 -99 -3 -117 -21 -140 l-20 -26
75 0 c42 0 76 3 76 8 0 4 -7 16 -15 26 -10 14 -15 45 -15 98 0 43 3 78 6 78 3
0 51 -37 106 -82 104 -84 188 -127 246 -128 l32 0 0 150 c0 137 2 152 20 170
20 20 20 20 -62 20 -79 0 -81 -1 -64 -19 14 -15 16 -35 14 -101 l-3 -82 -129
101 -129 101 -84 0 -85 0 26 -31z"/>
<path d="M2043 322 c24 -27 25 -283 1 -306 -14 -15 -5 -16 96 -16 101 0 110 1
96 16 -15 15 -24 124 -10 124 3 0 26 -23 51 -50 63 -70 91 -82 202 -88 l95 -5
-39 33 c-60 50 -175 163 -175 172 0 4 38 33 85 65 46 32 85 61 85 66 0 4 -43
7 -97 7 -94 0 -96 -1 -79 -19 16 -18 14 -21 -56 -76 l-73 -56 -3 56 c-2 43 1
62 14 76 17 19 14 19 -96 19 -109 0 -112 -1 -97 -18z"/>
</g>
</svg>
